<svg xmlns="http://www.w3.org/2000/svg" xmlns:xlink="http://www.w3.org/1999/xlink" width="500" zoomAndPan="magnify" viewBox="0 0 375 374.999991" height="500" preserveAspectRatio="xMidYMid meet" version="1.0"><defs><clipPath id="5e6e8dd57a"><path d="M 32 37.5 L 344 37.5 L 344 352.5 L 32 352.5 Z M 32 37.5 " clip-rule="nonzero"/></clipPath></defs><g clip-path="url(#5e6e8dd57a)"><path fill="#0097b2" d="M 101.84375 123.746094 C 101.84375 122.335938 101.878906 120.929688 101.953125 119.519531 C 102.023438 118.113281 102.125 116.710938 102.265625 115.308594 C 102.40625 113.90625 102.578125 112.507812 102.785156 111.117188 C 102.996094 109.722656 103.238281 108.335938 103.511719 106.953125 C 103.789062 105.570312 104.097656 104.199219 104.441406 102.832031 C 104.785156 101.464844 105.160156 100.109375 105.570312 98.761719 C 105.980469 97.414062 106.421875 96.078125 106.898438 94.75 C 107.375 93.425781 107.878906 92.109375 108.421875 90.808594 C 108.960938 89.507812 109.53125 88.222656 110.132812 86.949219 C 110.738281 85.675781 111.371094 84.417969 112.035156 83.175781 C 112.699219 81.933594 113.394531 80.707031 114.117188 79.5 C 114.84375 78.292969 115.597656 77.101562 116.378906 75.929688 C 117.164062 74.757812 117.972656 73.609375 118.8125 72.476562 C 119.652344 71.34375 120.519531 70.234375 121.414062 69.148438 C 122.304688 68.058594 123.226562 66.992188 124.171875 65.949219 C 125.117188 64.902344 126.089844 63.882812 127.085938 62.886719 C 128.082031 61.890625 129.101562 60.921875 130.144531 59.972656 C 131.1875 59.027344 132.253906 58.109375 133.34375 57.214844 C 134.433594 56.320312 135.542969 55.453125 136.671875 54.613281 C 137.804688 53.773438 138.957031 52.964844 140.125 52.179688 C 141.296875 51.398438 142.488281 50.644531 143.695312 49.917969 C 144.902344 49.195312 146.128906 48.5 147.371094 47.835938 C 148.613281 47.171875 149.871094 46.535156 151.140625 45.933594 C 152.414062 45.332031 153.703125 44.757812 155.003906 44.21875 C 156.304688 43.679688 157.617188 43.171875 158.945312 42.695312 C 160.269531 42.21875 161.605469 41.777344 162.953125 41.367188 C 164.300781 40.957031 165.660156 40.582031 167.027344 40.238281 C 168.390625 39.894531 169.765625 39.585938 171.148438 39.308594 C 172.527344 39.03125 173.914062 38.789062 175.308594 38.582031 C 176.703125 38.375 178.101562 38.199219 179.5 38.0625 C 180.902344 37.921875 182.308594 37.816406 183.714844 37.746094 C 185.121094 37.675781 186.527344 37.636719 187.9375 37.636719 C 301.734375 41.660156 301.957031 205.464844 188.230469 209.835938 C 186.816406 209.839844 185.40625 209.808594 183.996094 209.742188 C 182.585938 209.675781 181.179688 209.578125 179.773438 209.441406 C 178.367188 209.304688 176.96875 209.136719 175.570312 208.933594 C 174.175781 208.730469 172.785156 208.492188 171.398438 208.21875 C 170.011719 207.945312 168.636719 207.640625 167.265625 207.300781 C 165.894531 206.960938 164.535156 206.585938 163.183594 206.179688 C 161.832031 205.773438 160.488281 205.332031 159.160156 204.859375 C 157.828125 204.386719 156.511719 203.882812 155.207031 203.34375 C 153.902344 202.808594 152.609375 202.238281 151.332031 201.636719 C 150.054688 201.035156 148.792969 200.402344 147.546875 199.742188 C 146.300781 199.078125 145.070312 198.382812 143.859375 197.660156 C 142.648438 196.9375 141.453125 196.183594 140.277344 195.402344 C 139.101562 194.621094 137.949219 193.808594 136.8125 192.972656 C 135.675781 192.132812 134.5625 191.265625 133.46875 190.371094 C 132.378906 189.480469 131.308594 188.558594 130.261719 187.613281 C 129.210938 186.667969 128.1875 185.695312 127.1875 184.699219 C 126.1875 183.703125 125.214844 182.683594 124.265625 181.636719 C 123.316406 180.59375 122.390625 179.527344 121.492188 178.4375 C 120.597656 177.347656 119.726562 176.234375 118.882812 175.101562 C 118.039062 173.972656 117.226562 172.820312 116.441406 171.644531 C 115.65625 170.472656 114.898438 169.28125 114.171875 168.074219 C 113.441406 166.863281 112.746094 165.636719 112.078125 164.390625 C 111.410156 163.148438 110.773438 161.886719 110.167969 160.613281 C 109.5625 159.335938 108.988281 158.046875 108.449219 156.746094 C 107.90625 155.441406 107.398438 154.125 106.917969 152.796875 C 106.441406 151.46875 105.996094 150.128906 105.585938 148.777344 C 105.175781 147.429688 104.796875 146.070312 104.453125 144.699219 C 104.105469 143.332031 103.796875 141.953125 103.519531 140.570312 C 103.242188 139.1875 103 137.796875 102.789062 136.398438 C 102.582031 135.003906 102.40625 133.601562 102.269531 132.199219 C 102.128906 130.792969 102.023438 129.386719 101.953125 127.976562 C 101.882812 126.566406 101.84375 125.15625 101.84375 123.746094 Z M 275.078125 209.878906 C 273.933594 209.175781 272.710938 208.648438 271.410156 208.300781 C 270.113281 207.949219 268.789062 207.792969 267.445312 207.824219 C 266.101562 207.859375 264.789062 208.082031 263.507812 208.492188 C 262.230469 208.90625 261.035156 209.492188 259.921875 210.25 C 258.640625 211.292969 257.339844 212.304688 256.011719 213.289062 C 254.6875 214.273438 253.34375 215.230469 251.976562 216.15625 C 250.609375 217.082031 249.222656 217.980469 247.820312 218.847656 C 246.414062 219.714844 244.992188 220.550781 243.550781 221.355469 C 242.109375 222.160156 240.652344 222.9375 239.175781 223.679688 C 237.703125 224.421875 236.210938 225.132812 234.707031 225.8125 C 233.203125 226.488281 231.683594 227.136719 230.148438 227.75 C 228.617188 228.363281 227.070312 228.941406 225.515625 229.488281 C 223.957031 230.035156 222.386719 230.546875 220.808594 231.027344 C 219.226562 231.507812 217.636719 231.953125 216.039062 232.363281 C 214.441406 232.773438 212.832031 233.148438 211.21875 233.492188 C 209.601562 233.832031 207.980469 234.136719 206.351562 234.410156 C 204.722656 234.679688 203.089844 234.917969 201.453125 235.117188 C 199.8125 235.320312 198.171875 235.484375 196.523438 235.617188 C 194.878906 235.746094 193.230469 235.84375 191.582031 235.902344 C 189.929688 235.960938 188.28125 235.984375 186.628906 235.972656 C 184.980469 235.960938 183.328125 235.914062 181.679688 235.832031 C 180.03125 235.75 178.382812 235.632812 176.742188 235.476562 C 175.097656 235.324219 173.457031 235.136719 171.820312 234.910156 C 170.1875 234.6875 168.554688 234.425781 166.929688 234.132812 C 165.308594 233.839844 163.691406 233.507812 162.078125 233.144531 C 160.46875 232.78125 158.867188 232.382812 157.273438 231.949219 C 155.679688 231.515625 154.097656 231.050781 152.523438 230.546875 C 150.953125 230.046875 149.390625 229.511719 147.839844 228.945312 C 146.289062 228.375 144.753906 227.773438 143.230469 227.136719 C 141.703125 226.503906 140.195312 225.835938 138.699219 225.136719 C 137.203125 224.4375 135.726562 223.707031 134.261719 222.941406 C 132.796875 222.179688 131.351562 221.382812 129.921875 220.558594 C 128.492188 219.730469 127.082031 218.875 125.6875 217.988281 C 124.292969 217.101562 122.921875 216.1875 121.570312 215.242188 C 120.214844 214.296875 118.882812 213.320312 117.570312 212.316406 C 116.261719 211.316406 114.972656 210.285156 113.703125 209.226562 C 112.75 208.785156 111.753906 208.46875 110.71875 208.269531 C 109.6875 208.070312 108.644531 208 107.59375 208.054688 C 106.542969 208.109375 105.515625 208.289062 104.507812 208.59375 C 103.5 208.902344 102.542969 209.320312 101.640625 209.859375 C 98.992188 211.617188 96.40625 213.457031 93.871094 215.378906 C 91.339844 217.296875 88.867188 219.292969 86.457031 221.363281 C 84.050781 223.4375 81.707031 225.582031 79.429688 227.796875 C 77.152344 230.011719 74.945312 232.296875 72.808594 234.648438 C 70.671875 237 68.609375 239.417969 66.621094 241.894531 C 64.632812 244.375 62.722656 246.914062 60.890625 249.511719 C 59.058594 252.105469 57.308594 254.757812 55.640625 257.460938 C 53.972656 260.167969 52.390625 262.921875 50.890625 265.722656 C 49.390625 268.523438 47.980469 271.371094 46.65625 274.261719 C 45.335938 277.148438 44.101562 280.078125 42.957031 283.042969 C 41.816406 286.007812 40.765625 289.003906 39.808594 292.035156 C 38.847656 295.0625 37.984375 298.121094 37.214844 301.203125 C 36.445312 304.285156 35.769531 307.390625 35.191406 310.515625 C 34.613281 313.640625 34.132812 316.777344 33.746094 319.933594 C 33.363281 323.089844 33.074219 326.25 32.882812 329.421875 C 32.691406 332.59375 32.601562 335.769531 32.605469 338.949219 C 32.605469 339.816406 32.691406 340.675781 32.859375 341.527344 C 33.027344 342.382812 33.277344 343.207031 33.609375 344.011719 C 33.941406 344.8125 34.351562 345.578125 34.832031 346.296875 C 35.316406 347.019531 35.863281 347.6875 36.476562 348.304688 C 37.09375 348.917969 37.761719 349.464844 38.484375 349.949219 C 39.207031 350.429688 39.96875 350.839844 40.769531 351.171875 C 41.574219 351.503906 42.398438 351.753906 43.253906 351.921875 C 44.105469 352.089844 44.964844 352.175781 45.832031 352.175781 L 330.480469 352.175781 C 331.351562 352.175781 332.210938 352.089844 333.0625 351.921875 C 333.914062 351.753906 334.742188 351.503906 335.542969 351.171875 C 336.347656 350.839844 337.109375 350.429688 337.832031 349.949219 C 338.554688 349.464844 339.222656 348.917969 339.835938 348.304688 C 340.449219 347.6875 341 347.019531 341.480469 346.296875 C 341.964844 345.578125 342.371094 344.8125 342.703125 344.011719 C 343.035156 343.207031 343.285156 342.382812 343.457031 341.527344 C 343.625 340.675781 343.710938 339.816406 343.707031 338.949219 C 343.707031 335.777344 343.609375 332.609375 343.410156 329.445312 C 343.214844 326.28125 342.925781 323.125 342.535156 319.976562 C 342.148438 316.832031 341.664062 313.699219 341.085938 310.582031 C 340.503906 307.464844 339.832031 304.367188 339.0625 301.289062 C 338.296875 298.214844 337.433594 295.164062 336.480469 292.140625 C 335.527344 289.117188 334.480469 286.125 333.34375 283.164062 C 332.207031 280.203125 330.980469 277.28125 329.664062 274.398438 C 328.351562 271.511719 326.949219 268.667969 325.460938 265.871094 C 323.972656 263.070312 322.398438 260.320312 320.742188 257.617188 C 319.085938 254.910156 317.347656 252.261719 315.53125 249.664062 C 313.710938 247.066406 311.816406 244.527344 309.84375 242.042969 C 307.871094 239.5625 305.820312 237.140625 303.703125 234.785156 C 301.582031 232.429688 299.390625 230.136719 297.128906 227.914062 C 294.867188 225.691406 292.542969 223.539062 290.152344 221.457031 C 287.757812 219.375 285.304688 217.371094 282.792969 215.4375 C 280.277344 213.503906 277.707031 211.652344 275.078125 209.878906 Z M 275.078125 209.878906 " fill-opacity="1" fill-rule="nonzero"/></g></svg>