<svg xmlns="http://www.w3.org/2000/svg" xmlns:xlink="http://www.w3.org/1999/xlink" width="500" zoomAndPan="magnify" viewBox="0 0 375 374.999991" height="500" preserveAspectRatio="xMidYMid meet" version="1.0"><defs><clipPath id="35e4ddc4c2"><path d="M 32 37.5 L 344 37.5 L 344 352.5 L 32 352.5 Z M 32 37.5 " clip-rule="nonzero"/></clipPath></defs><g clip-path="url(#35e4ddc4c2)"><path fill="#000000" d="M 101.886719 123.796875 C 101.886719 122.386719 101.921875 120.976562 101.992188 119.570312 C 102.066406 118.160156 102.167969 116.757812 102.308594 115.355469 C 102.449219 113.953125 102.621094 112.554688 102.828125 111.160156 C 103.039062 109.765625 103.28125 108.375 103.554688 106.996094 C 103.832031 105.613281 104.140625 104.238281 104.484375 102.871094 C 104.828125 101.503906 105.207031 100.144531 105.617188 98.796875 C 106.023438 97.449219 106.46875 96.109375 106.945312 94.785156 C 107.417969 93.457031 107.925781 92.144531 108.46875 90.839844 C 109.007812 89.539062 109.578125 88.25 110.183594 86.976562 C 110.785156 85.703125 111.417969 84.445312 112.082031 83.203125 C 112.75 81.960938 113.445312 80.734375 114.167969 79.523438 C 114.894531 78.316406 115.648438 77.125 116.429688 75.953125 C 117.214844 74.78125 118.027344 73.628906 118.867188 72.496094 C 119.707031 71.367188 120.574219 70.253906 121.464844 69.164062 C 122.359375 68.074219 123.28125 67.007812 124.226562 65.964844 C 125.175781 64.921875 126.144531 63.898438 127.144531 62.902344 C 128.140625 61.90625 129.160156 60.933594 130.203125 59.988281 C 131.25 59.039062 132.316406 58.121094 133.40625 57.226562 C 134.492188 56.332031 135.605469 55.464844 136.738281 54.625 C 137.867188 53.785156 139.019531 52.972656 140.191406 52.1875 C 141.363281 51.40625 142.554688 50.652344 143.761719 49.925781 C 144.972656 49.199219 146.195312 48.507812 147.441406 47.839844 C 148.683594 47.175781 149.941406 46.542969 151.214844 45.9375 C 152.488281 45.335938 153.777344 44.761719 155.078125 44.222656 C 156.378906 43.683594 157.695312 43.175781 159.019531 42.699219 C 160.347656 42.222656 161.6875 41.78125 163.035156 41.371094 C 164.382812 40.960938 165.742188 40.582031 167.105469 40.238281 C 168.472656 39.894531 169.847656 39.585938 171.230469 39.308594 C 172.613281 39.03125 174 38.789062 175.394531 38.582031 C 176.789062 38.375 178.1875 38.199219 179.589844 38.0625 C 180.992188 37.921875 182.398438 37.816406 183.804688 37.746094 C 185.214844 37.675781 186.621094 37.636719 188.03125 37.636719 C 301.894531 41.664062 302.117188 205.566406 188.324219 209.941406 C 186.910156 209.941406 185.5 209.910156 184.089844 209.847656 C 182.675781 209.78125 181.269531 209.679688 179.863281 209.542969 C 178.457031 209.410156 177.054688 209.238281 175.65625 209.035156 C 174.261719 208.832031 172.867188 208.59375 171.480469 208.320312 C 170.097656 208.046875 168.71875 207.742188 167.347656 207.402344 C 165.976562 207.0625 164.613281 206.6875 163.261719 206.28125 C 161.910156 205.871094 160.566406 205.433594 159.238281 204.960938 C 157.90625 204.488281 156.585938 203.980469 155.28125 203.445312 C 153.976562 202.90625 152.683594 202.335938 151.40625 201.734375 C 150.125 201.132812 148.863281 200.5 147.617188 199.835938 C 146.371094 199.175781 145.140625 198.480469 143.925781 197.757812 C 142.714844 197.03125 141.519531 196.28125 140.34375 195.496094 C 139.167969 194.714844 138.011719 193.902344 136.875 193.0625 C 135.742188 192.226562 134.625 191.359375 133.53125 190.464844 C 132.4375 189.570312 131.367188 188.648438 130.320312 187.703125 C 129.269531 186.757812 128.246094 185.785156 127.246094 184.785156 C 126.246094 183.789062 125.269531 182.769531 124.320312 181.722656 C 123.371094 180.679688 122.445312 179.609375 121.546875 178.519531 C 120.648438 177.429688 119.78125 176.320312 118.9375 175.183594 C 118.09375 174.050781 117.277344 172.898438 116.492188 171.726562 C 115.707031 170.550781 114.949219 169.359375 114.21875 168.148438 C 113.492188 166.941406 112.792969 165.710938 112.125 164.46875 C 111.460938 163.222656 110.824219 161.960938 110.21875 160.6875 C 109.609375 159.410156 109.039062 158.121094 108.496094 156.816406 C 107.953125 155.511719 107.441406 154.195312 106.964844 152.867188 C 106.488281 151.535156 106.042969 150.195312 105.632812 148.84375 C 105.21875 147.492188 104.839844 146.132812 104.496094 144.761719 C 104.152344 143.394531 103.839844 142.015625 103.5625 140.632812 C 103.285156 139.246094 103.042969 137.855469 102.832031 136.457031 C 102.625 135.0625 102.449219 133.660156 102.3125 132.253906 C 102.171875 130.847656 102.066406 129.441406 101.996094 128.03125 C 101.921875 126.621094 101.886719 125.207031 101.886719 123.796875 Z M 275.222656 209.980469 C 274.078125 209.277344 272.855469 208.75 271.554688 208.402344 C 270.253906 208.050781 268.933594 207.894531 267.585938 207.925781 C 266.242188 207.960938 264.929688 208.183594 263.648438 208.597656 C 262.367188 209.007812 261.171875 209.59375 260.058594 210.355469 C 258.777344 211.394531 257.472656 212.410156 256.148438 213.394531 C 254.820312 214.378906 253.476562 215.335938 252.109375 216.261719 C 250.742188 217.191406 249.355469 218.085938 247.949219 218.953125 C 246.542969 219.824219 245.117188 220.660156 243.675781 221.464844 C 242.234375 222.269531 240.777344 223.046875 239.300781 223.789062 C 237.824219 224.53125 236.335938 225.242188 234.828125 225.921875 C 233.324219 226.601562 231.804688 227.25 230.269531 227.863281 C 228.734375 228.476562 227.1875 229.054688 225.628906 229.601562 C 224.070312 230.148438 222.503906 230.664062 220.921875 231.144531 C 219.339844 231.621094 217.75 232.066406 216.148438 232.476562 C 214.550781 232.890625 212.941406 233.265625 211.324219 233.605469 C 209.710938 233.949219 208.085938 234.253906 206.457031 234.527344 C 204.828125 234.800781 203.191406 235.035156 201.554688 235.238281 C 199.914062 235.4375 198.269531 235.605469 196.625 235.734375 C 194.976562 235.863281 193.328125 235.960938 191.675781 236.019531 C 190.027344 236.078125 188.375 236.101562 186.722656 236.089844 C 185.070312 236.082031 183.421875 236.03125 181.769531 235.949219 C 180.121094 235.867188 178.472656 235.75 176.828125 235.59375 C 175.183594 235.441406 173.542969 235.253906 171.90625 235.027344 C 170.269531 234.804688 168.636719 234.542969 167.011719 234.25 C 165.386719 233.957031 163.769531 233.625 162.15625 233.261719 C 160.546875 232.898438 158.945312 232.5 157.351562 232.066406 C 155.753906 231.632812 154.171875 231.164062 152.597656 230.664062 C 151.023438 230.160156 149.460938 229.625 147.910156 229.058594 C 146.359375 228.488281 144.820312 227.886719 143.296875 227.25 C 141.769531 226.617188 140.261719 225.949219 138.765625 225.25 C 137.269531 224.546875 135.789062 223.816406 134.324219 223.050781 C 132.859375 222.289062 131.410156 221.492188 129.980469 220.667969 C 128.550781 219.839844 127.136719 218.984375 125.746094 218.097656 C 124.351562 217.210938 122.976562 216.292969 121.625 215.347656 C 120.269531 214.402344 118.9375 213.425781 117.625 212.421875 C 116.3125 211.417969 115.023438 210.386719 113.753906 209.328125 C 112.796875 208.886719 111.800781 208.570312 110.769531 208.371094 C 109.734375 208.171875 108.691406 208.101562 107.640625 208.15625 C 106.589844 208.210938 105.558594 208.390625 104.550781 208.695312 C 103.542969 209.003906 102.585938 209.425781 101.683594 209.960938 C 99.035156 211.722656 96.445312 213.5625 93.910156 215.484375 C 91.375 217.40625 88.902344 219.402344 86.492188 221.472656 C 84.082031 223.546875 81.738281 225.691406 79.457031 227.910156 C 77.179688 230.128906 74.96875 232.414062 72.832031 234.765625 C 70.695312 237.121094 68.628906 239.535156 66.640625 242.019531 C 64.652344 244.5 62.742188 247.039062 60.910156 249.636719 C 59.078125 252.234375 57.324219 254.886719 55.65625 257.59375 C 53.988281 260.300781 52.402344 263.054688 50.902344 265.859375 C 49.402344 268.664062 47.992188 271.511719 46.667969 274.402344 C 45.34375 277.292969 44.109375 280.222656 42.964844 283.1875 C 41.824219 286.15625 40.773438 289.152344 39.8125 292.183594 C 38.855469 295.21875 37.988281 298.277344 37.21875 301.359375 C 36.449219 304.445312 35.773438 307.550781 35.195312 310.675781 C 34.617188 313.804688 34.132812 316.945312 33.75 320.101562 C 33.363281 323.257812 33.074219 326.421875 32.886719 329.597656 C 32.695312 332.769531 32.601562 335.949219 32.609375 339.128906 C 32.605469 339.996094 32.691406 340.859375 32.859375 341.710938 C 33.03125 342.5625 33.28125 343.390625 33.613281 344.195312 C 33.945312 344.996094 34.351562 345.757812 34.835938 346.480469 C 35.320312 347.207031 35.867188 347.875 36.480469 348.488281 C 37.097656 349.101562 37.765625 349.652344 38.488281 350.132812 C 39.210938 350.617188 39.972656 351.023438 40.777344 351.355469 C 41.578125 351.691406 42.40625 351.941406 43.261719 352.109375 C 44.113281 352.277344 44.972656 352.363281 45.84375 352.363281 L 330.660156 352.363281 C 331.53125 352.363281 332.390625 352.277344 333.242188 352.109375 C 334.09375 351.941406 334.921875 351.691406 335.726562 351.355469 C 336.53125 351.023438 337.292969 350.617188 338.015625 350.132812 C 338.738281 349.652344 339.40625 349.101562 340.019531 348.488281 C 340.636719 347.875 341.183594 347.207031 341.667969 346.480469 C 342.148438 345.757812 342.558594 344.996094 342.890625 344.195312 C 343.222656 343.390625 343.472656 342.5625 343.640625 341.710938 C 343.8125 340.859375 343.894531 339.996094 343.894531 339.128906 C 343.894531 335.953125 343.792969 332.785156 343.597656 329.617188 C 343.402344 326.453125 343.109375 323.292969 342.722656 320.144531 C 342.332031 316.996094 341.851562 313.863281 341.269531 310.742188 C 340.691406 307.625 340.015625 304.527344 339.246094 301.449219 C 338.480469 298.371094 337.617188 295.316406 336.664062 292.292969 C 335.707031 289.265625 334.660156 286.273438 333.523438 283.3125 C 332.386719 280.347656 331.160156 277.425781 329.84375 274.539062 C 328.527344 271.652344 327.125 268.808594 325.636719 266.007812 C 324.144531 263.203125 322.574219 260.453125 320.914062 257.746094 C 319.257812 255.042969 317.519531 252.390625 315.699219 249.789062 C 313.878906 247.191406 311.984375 244.648438 310.007812 242.164062 C 308.035156 239.683594 305.988281 237.261719 303.863281 234.902344 C 301.742188 232.542969 299.550781 230.253906 297.289062 228.027344 C 295.027344 225.804688 292.699219 223.648438 290.304688 221.566406 C 287.914062 219.484375 285.457031 217.476562 282.941406 215.542969 C 280.425781 213.609375 277.851562 211.757812 275.222656 209.980469 Z M 275.222656 209.980469 " fill-opacity="1" fill-rule="nonzero"/></g></svg>